<?xml version="1.0" encoding="UTF-8"?>
<svg id="Layer_2" data-name="Layer 2" xmlns="http://www.w3.org/2000/svg" viewBox="0 0 552.8 89.3">
  <defs>
    <style>
      .cls-1 {
        fill: #fefeea;
      }

      .cls-2 {
        fill: #a18269;
      }
    </style>
  </defs>
  <g id="Outlines">
    <g>
      <polygon class="cls-2" points="61.56 8.14 33.73 8.14 72.51 66.65 86.4 45.67 61.56 8.14"/>
      <polygon class="cls-2" points="27.85 45.68 42.13 66.65 72.51 66.65 57.51 89.3 29.02 89.3 0 45.66 27.85 45.68"/>
    </g>
    <g>
      <path class="cls-1" d="M157.25,18.59l-19.68,56.62-19.93-56.62h-10.94l21.51,60.39h18.59l21.14-60.39h-10.7Z"/>
      <path class="cls-1" d="M215.9,57.84c-2.07,8.39-8.14,13.73-18.47,13.73-12.52,0-18.71-8.99-19.07-20.77h48v-3.89c0-18.71-11.66-29.53-29.52-29.53s-28.92,11.06-28.92,30.62c0,17.86,9.96,32.2,29.65,32.2,18.59,0,26.61-11.18,29.04-22.35h-10.7ZM196.83,25.88c10.82,0,18.22,6.32,18.95,17.25h-37.31c.85-10.94,8.39-17.25,18.35-17.25Z"/>
      <polygon class="cls-1" points="275.23 18.59 275.23 27.82 243.4 27.82 243.4 78.98 232.58 78.98 232.58 18.59 275.23 18.59"/>
      <path class="cls-1" d="M311.97,45.81l-14.1-4.01c-5.96-1.7-8.63-4.13-8.63-8.14,0-4.5,4.74-7.9,12.52-7.9,9.1,0,14.19,4.49,14.33,11.61l10.52-3.45c-1.7-10.74-10.98-16.54-24.98-16.54s-23.08,5.96-23.08,16.52c0,9.6,7.17,13.98,13.98,15.92l16.16,4.74c6.33,1.7,8.88,4.13,8.88,8.26,0,6.2-4.38,8.88-12.89,8.88-11.1,0-17.64-4.92-17.74-14.75l-10.58,3.47c1.61,12.66,11.74,19.78,28.2,19.78,15.55,0,23.82-6.19,23.82-17.13,0-9.35-6.2-14.34-16.4-17.25Z"/>
      <path class="cls-1" d="M520.85,17.37c-19.32,0-32.09,13.49-32.09,31.35s12.77,31.47,32.09,31.47,31.95-13.49,31.95-31.47-12.76-31.35-31.95-31.35ZM520.85,70.97c-13.86,0-21.39-9.97-21.39-22.24s7.54-22.11,21.39-22.11,21.26,9.97,21.26,22.11-7.54,22.24-21.26,22.24Z"/>
      <path class="cls-1" d="M387.04,69.75v-25.27c0-16.28-9.36-27.1-26.85-27.1-15.8,0-25.15,9-26.49,22.72h10.7c.97-10.09,7.17-13.98,15.55-13.98,10.94,0,15.8,5.23,16.28,16.16l-23.69,2.31c-14.34,1.34-20.17,8.02-20.17,17.62,0,6.33,2.68,17.98,20.42,17.98,14.95,0,21.99-7.65,24.78-16.16l-.02,14.95h18.37v-9.24h-8.88ZM354.48,71.33c-6.93,0-11.43-3.52-11.43-10.45,0-5.84,3.89-7.9,11.3-8.63l21.87-2.31c0,12.15-8.63,21.38-21.74,21.38Z"/>
      <path class="cls-1" d="M467.38,69.87V27.82h18.95v-9.23h-18.95V0l-10.82,3.28v15.31h-36.46V.1l-10.82,3.54v14.95h-13.37v9.23h13.37l-.02,51.16h32.23v-9.24l-21.39.12V27.82h36.46v42.66c0,.24,0,.48.02.71v7.79h32.18v-9.24l-21.38.12Z"/>
    </g>
  </g>
</svg>